<?xml version="1.0" standalone="no"?>
<!DOCTYPE svg PUBLIC "-//W3C//DTD SVG 20010904//EN"
 "http://www.w3.org/TR/2001/REC-SVG-20010904/DTD/svg10.dtd">
<svg version="1.0" xmlns="http://www.w3.org/2000/svg"
 width="1280.000000pt" height="659.000000pt" viewBox="0 0 1280.000000 659.000000"
 preserveAspectRatio="xMidYMid meet">
<metadata>
Created by potrace 1.15, written by Peter Selinger 2001-2017
</metadata>
<g transform="translate(0.000000,659.000000) scale(0.100000,-0.100000)"
fill="#000000" stroke="none">
<path d="M12695 6537 c-124 -66 -169 -94 -268 -169 -193 -147 -354 -344 -471
-577 -32 -63 -214 -373 -263 -448 -16 -24 -11 -23 62 17 124 67 182 108 249
175 83 83 125 140 257 345 62 96 131 200 154 230 23 30 49 69 58 85 20 39 96
112 225 214 l102 82 0 49 c0 28 -1 50 -2 50 -2 0 -48 -24 -103 -53z"/>
<path d="M34 6515 c-11 -43 23 -78 221 -237 91 -73 131 -128 410 -553 132
-201 236 -305 391 -393 61 -34 114 -62 117 -62 3 0 -24 48 -60 108 -103 167
-185 308 -243 419 -146 280 -398 525 -701 683 -64 33 -119 60 -123 60 -3 0 -8
-11 -12 -25z"/>
<path d="M11564 6251 c-161 -88 -260 -188 -476 -479 -103 -138 -123 -165 -313
-395 -109 -132 -135 -172 -135 -206 0 -33 15 -33 85 3 188 99 425 299 551 466
60 79 136 209 158 270 9 25 60 104 113 175 98 134 114 161 106 183 -8 19 -33
14 -89 -17z"/>
<path d="M1210 6215 c-15 -18 2 -50 110 -195 42 -58 100 -152 128 -210 112
-235 298 -437 569 -619 101 -67 177 -106 193 -96 28 17 -5 82 -95 190 -113
135 -286 353 -391 495 -165 222 -281 335 -426 414 -74 41 -72 41 -88 21z"/>
<path d="M3357 6203 c-3 -5 -11 -40 -18 -77 -38 -221 79 -453 328 -653 424
-338 618 -659 600 -993 -6 -126 -26 -189 -73 -230 -76 -67 -189 -17 -256 114
-19 36 -22 60 -24 206 -1 136 -5 178 -23 240 -54 183 -142 297 -289 374 -48
25 -100 54 -117 66 -35 23 -63 26 -71 6 -8 -22 44 -92 154 -208 115 -121 136
-153 158 -239 28 -108 13 -233 -57 -475 -11 -36 -10 -50 10 -112 36 -110 108
-210 274 -379 l150 -152 -26 -58 c-14 -32 -35 -85 -48 -118 -25 -68 -39 -89
-39 -58 0 42 -52 189 -101 283 -99 195 -229 327 -598 609 -465 354 -610 516
-747 831 -26 61 -51 110 -54 110 -4 0 -13 -18 -20 -39 -25 -78 0 -178 109
-424 103 -234 198 -355 468 -593 92 -82 226 -205 296 -274 106 -103 134 -137
162 -195 107 -218 80 -417 -57 -432 -44 -5 -44 -5 -114 70 -128 137 -221 298
-380 659 -42 95 -103 226 -136 291 -52 100 -72 128 -137 190 -106 100 -195
165 -473 343 -382 245 -451 303 -678 569 -71 83 -154 175 -187 206 -65 63
-153 135 -153 125 0 -14 63 -163 101 -237 160 -319 415 -603 853 -953 277
-221 391 -348 442 -496 66 -188 30 -279 -86 -220 -65 33 -156 116 -206 187
-251 359 -381 521 -535 667 -189 180 -326 276 -573 400 -176 90 -260 117 -301
98 -36 -17 -31 -33 20 -66 344 -217 551 -437 852 -906 251 -390 343 -498 575
-677 196 -151 319 -225 698 -420 280 -144 389 -208 423 -246 39 -46 114 -201
133 -277 19 -75 14 -164 -12 -229 -19 -49 -34 -51 -108 -15 -67 33 -153 119
-248 250 -278 384 -410 521 -670 691 -183 121 -588 312 -588 278 0 -39 73
-105 230 -209 107 -71 187 -133 228 -175 69 -71 217 -264 352 -456 223 -318
384 -504 538 -620 64 -48 132 -85 266 -145 100 -45 234 -109 300 -143 l119
-62 38 -105 c58 -155 161 -355 260 -504 347 -522 863 -896 1464 -1061 511
-140 1069 -115 1571 70 238 88 511 244 719 412 120 97 316 296 407 413 163
211 311 478 392 710 l44 125 138 72 c77 40 207 103 289 140 296 134 435 272
824 821 243 344 324 430 516 552 131 83 208 147 231 192 9 17 14 32 11 34 -6
7 -221 -83 -337 -140 -339 -171 -571 -367 -808 -686 -194 -262 -240 -318 -296
-360 -66 -50 -135 -76 -152 -58 -18 19 -44 115 -44 163 0 104 66 274 145 370
37 46 129 100 502 294 309 160 429 233 601 363 229 174 359 326 592 688 298
465 482 665 798 873 56 37 102 71 102 75 0 18 -26 32 -62 32 -79 0 -329 -120
-533 -255 -260 -172 -521 -448 -774 -820 -102 -150 -195 -244 -276 -281 -92
-42 -125 -13 -111 101 8 69 44 169 87 242 49 82 181 212 359 353 434 345 662
590 845 908 47 82 138 292 130 300 -2 2 -37 -23 -77 -56 -76 -62 -130 -120
-311 -334 -156 -185 -261 -273 -534 -448 -376 -240 -528 -351 -611 -445 -43
-49 -134 -227 -242 -475 -156 -355 -234 -487 -378 -633 -61 -63 -70 -68 -100
-63 -18 2 -45 14 -61 25 -79 57 -81 236 -5 397 39 82 145 195 374 399 237 210
379 356 447 457 26 39 80 144 120 233 107 241 134 356 97 426 -8 17 -17 29
-18 27 -2 -1 -20 -43 -41 -93 -93 -218 -173 -335 -344 -505 -75 -74 -192 -178
-260 -230 -455 -348 -546 -427 -653 -571 -99 -132 -166 -277 -198 -432 -6 -32
-13 -57 -15 -55 -1 2 -25 58 -53 124 l-49 122 114 113 c182 181 261 293 298
421 16 56 16 58 -14 160 -66 229 -68 378 -8 495 9 17 64 82 122 144 107 115
168 195 162 213 -7 22 -39 17 -85 -12 -26 -16 -74 -43 -107 -58 -88 -42 -192
-149 -237 -244 -57 -120 -72 -193 -73 -370 -2 -163 -9 -195 -56 -262 -33 -46
-106 -88 -152 -88 -32 0 -46 7 -77 38 -54 53 -65 101 -65 267 0 165 17 232 96
385 93 182 248 356 499 563 205 170 301 313 331 496 12 70 1 191 -19 228 -6 9
-28 -30 -67 -118 -126 -284 -157 -322 -408 -489 -243 -164 -355 -248 -460
-349 -170 -164 -265 -329 -287 -498 -9 -72 -37 -135 -83 -187 l-32 -36 -108
87 c-106 86 -109 89 -103 123 3 19 37 98 75 175 38 77 71 157 74 178 l6 38
-38 -30 c-65 -52 -154 -154 -191 -219 -19 -34 -40 -70 -46 -78 -9 -14 -26 -7
-125 50 -250 143 -528 241 -844 297 -153 27 -510 37 -678 20 -219 -24 -466
-83 -663 -160 -114 -44 -323 -147 -402 -197 -29 -19 -56 -34 -61 -34 -5 0 -14
14 -21 31 -35 85 -129 202 -223 281 l-48 41 6 -39 c3 -21 35 -97 70 -169 35
-71 70 -153 78 -182 l16 -52 -52 -39 c-29 -21 -77 -60 -107 -86 l-55 -47 -42
46 c-44 48 -83 135 -83 184 0 38 -36 154 -68 216 -105 210 -265 357 -707 653
-83 55 -171 122 -196 149 -60 64 -116 160 -184 318 -63 143 -61 140 -68 128z"/>
</g>
</svg>
